<mxfile host="app.diagrams.net" modified="2023-08-10T06:45:30.335Z" agent="Mozilla/5.0 (Macintosh; Intel Mac OS X 10_15_7) AppleWebKit/605.1.15 (KHTML, like Gecko) Version/16.4 Safari/605.1.15" version="21.6.7" etag="fA542GvBvrVuvm9jeSPK" type="github">
  <diagram name="Page-1" id="9sVOfhHkYw22SVsHzjD5">
    <mxGraphModel>
      <root>
        <mxCell id="0" />
        <mxCell id="1" parent="0" />
      </root>
    </mxGraphModel>
  </diagram>
</mxfile>
